<?xml version="1.0" encoding="UTF-8"?>
<svg version="1.1" xmlns="http://www.w3.org/2000/svg" width="192" height="192">
<path d="M0 0 C2.87037817 1.32792924 3.62218151 3.05320478 5.15356445 5.80053711 C5.74008789 6.83629883 6.32661133 7.87206055 6.9309082 8.93920898 C7.55481445 10.07036133 8.1787207 11.20151367 8.8215332 12.36694336 C9.48552791 13.54805307 10.15091573 14.72838056 10.81762695 15.90795898 C12.20277986 18.36117263 13.58185218 20.81765736 14.95678711 23.27661133 C18.08504407 28.85963881 21.30127776 34.39185341 24.5090332 39.92944336 C25.75553149 42.0893662 27.00162355 44.24952353 28.24731445 46.40991211 C30.78519313 50.80903411 33.32439903 55.20738657 35.86450195 59.60522461 C38.98486967 65.00790034 42.10047154 70.41330597 45.21459961 75.81958008 C46.99923369 78.9124602 48.79082116 82.00123294 50.58325195 85.08959961 C51.68369644 86.9944412 52.78396601 88.89938385 53.8840332 90.80444336 C54.39023193 91.67238525 54.89643066 92.54032715 55.41796875 93.43457031 C56.10886597 94.63472778 56.10886597 94.63472778 56.8137207 95.85913086 C57.21574707 96.55248535 57.61777344 97.24583984 58.03198242 97.96020508 C59.04588023 100.00370826 59.73003642 101.6613771 60.0090332 103.92944336 C59.3490332 104.91944336 58.6890332 105.90944336 58.0090332 106.92944336 C52.97945032 106.43460173 49.46579961 105.41192104 45.11450195 102.85913086 C44.0063916 102.2170166 42.89828125 101.57490234 41.7565918 100.91333008 C40.56979111 100.21056114 39.38310769 99.50759415 38.1965332 98.80444336 C36.96101041 98.08345178 35.72483428 97.3635787 34.48803711 96.64477539 C31.93273567 95.15785003 29.38100289 93.66505796 26.83178711 92.16772461 C23.14597293 90.00542399 19.44551948 87.86939016 15.73950195 85.74194336 C15.15825058 85.40808624 14.57699921 85.07422913 13.97813416 84.73025513 C13.40607742 84.40169525 12.83402069 84.07313538 12.24462891 83.73461914 C8.09681515 81.35230054 3.94993726 78.96873268 -0.18334961 76.5612793 C-2.08771986 75.45442619 -3.99880621 74.35906346 -5.91577148 73.27416992 C-6.82488281 72.75048828 -7.73399414 72.22680664 -8.6706543 71.68725586 C-9.48002441 71.22722168 -10.28939453 70.7671875 -11.12329102 70.29321289 C-12.9909668 68.92944336 -12.9909668 68.92944336 -13.9909668 65.92944336 C-13.27832031 64.12011719 -13.27832031 64.12011719 -12.11987305 62.13647461 C-11.7105957 61.42426758 -11.30131836 60.71206055 -10.87963867 59.97827148 C-10.44200195 59.2402832 -10.00436523 58.50229492 -9.5534668 57.74194336 C-9.11969727 56.99235352 -8.68592773 56.24276367 -8.23901367 55.47045898 C-7.16539448 53.61817093 -6.07933998 51.77310086 -4.9909668 49.92944336 C-0.40136205 50.62483802 2.45990353 51.97981636 7.0090332 53.92944336 C4.3690332 49.30944336 1.7290332 44.68944336 -0.9909668 39.92944336 C-3.27353977 42.97287399 -5.16032497 45.81633241 -7.0378418 49.09350586 C-7.62758789 50.11959961 -8.21733398 51.14569336 -8.82495117 52.20288086 C-9.45723633 53.30889648 -10.08952148 54.41491211 -10.7409668 55.55444336 C-11.41061073 56.72126958 -12.08053764 57.88793345 -12.75073242 59.05444336 C-14.14245449 61.47731848 -15.53295784 63.90088682 -16.92260742 66.32495117 C-20.1006768 71.86634311 -23.29658645 77.39744376 -26.4909668 82.92944336 C-30.32937317 89.57813858 -34.16433181 96.22875145 -37.98706055 102.88647461 C-41.11202536 108.32665478 -44.24877045 113.75981163 -47.39916992 119.18530273 C-48.38823286 120.89037443 -49.37444751 122.59710577 -50.35620117 124.30639648 C-51.45131262 126.20917467 -52.56101321 128.10223246 -53.6784668 129.99194336 C-54.51958008 131.4324707 -54.51958008 131.4324707 -55.37768555 132.90209961 C-56.9909668 134.92944336 -56.9909668 134.92944336 -58.94799805 135.98803711 C-60.9909668 135.92944336 -60.9909668 135.92944336 -62.87988281 134.31982422 C-65.29452804 131.5857209 -67.00097598 128.79221392 -68.8112793 125.62475586 C-69.15601288 125.02315643 -69.50074646 124.42155701 -69.85592651 123.80172729 C-70.5800265 122.53440349 -71.30093258 121.26525001 -72.01879883 119.99438477 C-73.11135533 118.06259705 -74.2163442 116.13833862 -75.32299805 114.21459961 C-76.02818108 112.97674871 -76.73263263 111.73848074 -77.4362793 110.49975586 C-78.07065918 109.38358887 -78.70503906 108.26742187 -79.35864258 107.11743164 C-82.03270807 101.89488495 -83.24874472 97.70306068 -83.1159668 91.83178711 C-83.10049805 90.70063477 -83.0850293 89.56948242 -83.0690918 88.40405273 C-83.03041992 86.65318359 -83.03041992 86.65318359 -82.9909668 84.86694336 C-82.9398049 82.54291424 -82.89778938 80.21866148 -82.8659668 77.89428711 C-82.84276367 76.86940186 -82.81956055 75.8445166 -82.7956543 74.78857422 C-83.05028416 71.06111137 -83.83986838 68.2429435 -86.32861328 65.40307617 C-86.83465088 64.98380859 -87.34068848 64.56454102 -87.86206055 64.13256836 C-88.71489624 63.41411743 -88.71489624 63.41411743 -89.58496094 62.68115234 C-90.19331787 62.18558838 -90.8016748 61.69002441 -91.4284668 61.17944336 C-92.05809326 60.65358643 -92.68771973 60.12772949 -93.33642578 59.5859375 C-95.2128254 58.02318199 -97.0998556 56.47434518 -98.9909668 54.92944336 C-99.95260742 54.13924805 -100.91424805 53.34905273 -101.9050293 52.53491211 C-103.66526901 51.09400792 -105.42827942 49.65648162 -107.1940918 48.22241211 C-111.48855265 44.70167395 -115.71633613 41.10331202 -119.94799805 37.50756836 C-121.51371332 36.18103167 -123.08133318 34.85625471 -124.67602539 33.56469727 C-128.88995298 30.14409772 -128.88995298 30.14409772 -129.9909668 27.80444336 C-129.9909668 25.92944336 -129.9909668 25.92944336 -127.9909668 22.92944336 C-125.49086964 22.58433759 -123.23029621 22.43722466 -120.72167969 22.41430664 C-119.97162155 22.39619934 -119.22156342 22.37809204 -118.44877625 22.35943604 C-115.95369005 22.3052137 -113.45916112 22.27516564 -110.96362305 22.24975586 C-110.10656706 22.23877743 -109.24951107 22.227799 -108.36648369 22.21648788 C-103.81236048 22.15966105 -99.2585157 22.12191398 -94.70410156 22.09887695 C-90.96614649 22.07693312 -87.23114017 22.02177313 -83.49414062 21.93481445 C-43.72492535 21.02678683 -43.72492535 21.02678683 -28.9909668 33.92944336 C-29.63778617 39.27888946 -30.70816064 42.76272066 -33.5534668 47.36694336 C-34.19413086 48.4175293 -34.83479492 49.46811523 -35.49487305 50.55053711 C-36.23543945 51.7280957 -36.23543945 51.7280957 -36.9909668 52.92944336 C-41.74693608 52.43863839 -44.2127544 51.21788107 -47.9909668 48.36694336 C-56.79420318 42.89284967 -66.99259965 44.32222806 -76.9909668 44.92944336 C-75.86948242 45.94264648 -75.86948242 45.94264648 -74.7253418 46.97631836 C-73.73050123 47.87730604 -72.73571231 48.77835074 -71.7409668 49.67944336 C-70.76643555 50.56116211 -69.7919043 51.44288086 -68.7878418 52.35131836 C-67.86487305 53.20209961 -66.9419043 54.05288086 -65.9909668 54.92944336 C-65.28133789 55.45860352 -64.57170898 55.98776367 -63.84057617 56.53295898 C-61.05314995 60.14454501 -61.49029025 63.41393244 -61.6003418 67.85131836 C-61.60600159 68.71130432 -61.61166138 69.57129028 -61.61749268 70.45733643 C-61.63984729 73.19860985 -61.69004077 75.9385664 -61.7409668 78.67944336 C-61.76103304 80.54010154 -61.77928359 82.40078025 -61.7956543 84.26147461 C-61.83970895 88.81797002 -61.90872926 93.37348358 -61.9909668 97.92944336 C-59.19532904 95.43559544 -57.55843275 92.67729255 -55.7253418 89.42553711 C-55.09031738 88.30566406 -54.45529297 87.18579102 -53.80102539 86.03198242 C-53.46576843 85.43550903 -53.13051147 84.83903564 -52.78509521 84.2244873 C-51.72478441 82.33815429 -50.65877313 80.45515252 -49.59106445 78.57299805 C-48.48450786 76.62231191 -47.37825583 74.67146178 -46.27371216 72.71963501 C-42.67083277 66.35375367 -39.024676 60.0134208 -35.3659668 53.67944336 C-34.75382324 52.61935059 -34.14167969 51.55925781 -33.51098633 50.46704102 C-27.54842986 40.15032178 -21.56476246 29.84603328 -15.53637695 19.56762695 C-14.54130386 17.86892871 -13.54860057 16.1688389 -12.55883789 14.46704102 C-11.31334487 12.32573885 -10.05981362 10.18938942 -8.8034668 8.05444336 C-8.277771 7.14432495 -8.277771 7.14432495 -7.74145508 6.21582031 C-3.97052135 -0.14070885 -3.97052135 -0.14070885 0 0 Z " fill="#C01820" transform="translate(130.990966796875,28.070556640625)"/>
</svg>
